<?xml version="1.0" standalone="no"?>
<!DOCTYPE svg PUBLIC "-//W3C//DTD SVG 20010904//EN"
 "http://www.w3.org/TR/2001/REC-SVG-20010904/DTD/svg10.dtd">
<svg version="1.0" xmlns="http://www.w3.org/2000/svg"
 width="251.000000pt" height="192.000000pt" viewBox="0 0 251.000000 192.000000"
 preserveAspectRatio="xMidYMid meet">

<g transform="translate(0.000000,192.000000) scale(0.100000,-0.100000)"
fill="#000000" stroke="none">
<path d="M1111 1663 c-23 -5 -23 -6 -16 -81 9 -94 19 -116 48 -108 12 3 33 6
46 6 24 0 24 0 17 82 -9 108 -16 116 -95 101z m63 -30 c3 -10 8 -43 11 -74 7
-55 6 -56 -20 -63 -15 -4 -29 -5 -32 -3 -8 8 -23 138 -17 148 10 16 52 10 58
-8z"/>
<path d="M1260 1662 c0 -5 3 -12 8 -16 4 -4 12 -44 17 -89 14 -111 30 -113 74
-10 18 43 38 81 45 86 8 5 7 10 -4 17 -25 16 -42 12 -35 -9 3 -10 -7 -46 -23
-82 l-29 -64 -7 67 c-4 37 -5 77 -1 88 5 16 2 20 -19 20 -14 0 -26 -4 -26 -8z"/>
<path d="M954 1616 c-18 -8 -34 -18 -37 -23 -3 -4 8 -43 25 -86 23 -60 34 -77
49 -77 28 0 79 28 79 43 0 25 -59 152 -72 154 -7 1 -27 -4 -44 -11z m69 -74
c25 -63 26 -68 10 -80 -10 -7 -24 -11 -31 -10 -12 3 -62 107 -62 130 0 7 34
26 50 27 3 0 17 -30 33 -67z"/>
<path d="M1478 1536 c-29 -36 -60 -65 -68 -66 -12 0 -11 -4 4 -15 24 -18 39
-19 33 -2 -2 6 2 20 10 29 22 24 66 4 57 -26 -4 -12 -12 -24 -18 -28 -8 -6 -6
-11 4 -18 21 -14 40 -12 34 3 -2 7 2 46 11 86 8 40 15 79 15 87 0 30 -31 11
-82 -50z m54 4 c-5 -35 -19 -47 -35 -31 -8 8 -4 18 13 36 13 14 24 25 25 25 1
0 0 -14 -3 -30z"/>
<path d="M776 1511 c-35 -28 -46 -46 -27 -46 13 0 91 -102 91 -120 0 -18 11
-19 34 -2 17 13 17 14 -8 30 -29 19 -37 63 -10 53 9 -3 20 -6 24 -6 5 0 18 -9
28 -20 l19 -20 18 20 c16 18 16 20 2 20 -9 0 -34 7 -55 15 -33 14 -38 20 -34
41 4 23 -20 64 -38 64 -4 0 -24 -13 -44 -29z m59 -10 c7 -22 -3 -71 -15 -71
-5 0 -17 12 -28 27 -19 27 -19 27 2 45 27 22 33 22 41 -1z"/>
<path d="M1680 1511 c0 -20 -89 -121 -106 -121 -17 0 -18 -12 -2 -28 16 -16
28 -15 28 1 0 7 17 30 39 51 l39 38 -21 -71 c-30 -100 -15 -109 53 -32 28 34
58 61 66 61 17 0 18 12 2 28 -16 16 -28 15 -28 -1 0 -7 -18 -30 -39 -51 l-39
-39 20 72 c20 67 20 73 5 89 -13 12 -17 13 -17 3z"/>
<path d="M638 1363 c-29 -44 -33 -58 -15 -58 19 0 126 -78 129 -95 3 -15 68
69 68 88 0 13 -125 102 -143 102 -8 0 -26 -17 -39 -37z m102 -26 l59 -43 -17
-26 -17 -26 -63 44 c-61 45 -62 45 -46 70 9 13 18 24 20 24 3 0 31 -19 64 -43z"/>
<path d="M1763 1298 c-40 -23 -73 -47 -73 -53 0 -20 40 -75 55 -75 27 0 145
73 145 90 0 18 -37 80 -47 80 -5 0 -41 -19 -80 -42z m99 -13 c6 -14 9 -27 7
-28 -2 -2 -31 -18 -63 -36 l-60 -33 -18 22 c-10 12 -18 25 -18 29 0 8 111 69
128 70 7 1 18 -10 24 -24z"/>
<path d="M1449 1307 c12 -13 19 -31 16 -39 -4 -9 10 -31 37 -57 l43 -41 6 37
c6 35 6 34 8 -15 l1 -52 -29 32 c-16 18 -32 31 -35 27 -6 -6 55 -109 65 -109
10 0 19 40 19 87 0 35 -6 49 -40 85 -22 24 -40 39 -40 35 0 -5 -12 1 -26 12
-36 28 -53 27 -25 -2z m71 -56 c8 -28 7 -30 -9 -22 -10 6 -24 18 -31 28 -12
15 -12 16 0 6 22 -20 32 -15 24 10 -3 12 -4 19 0 16 4 -4 11 -20 16 -38z"/>
<path d="M981 1294 c-23 -29 -27 -44 -12 -44 9 0 51 52 51 64 0 14 -20 4 -39
-20z"/>
<path d="M1129 1297 c-83 -44 -137 -145 -125 -234 16 -122 109 -203 231 -203
97 0 171 47 211 135 31 65 31 126 0 191 -55 118 -204 170 -317 111z m121 -207
c0 -5 -7 -10 -15 -10 -8 0 -15 5 -15 10 0 6 7 10 15 10 8 0 15 -4 15 -10z"/>
<path d="M936 1271 c-13 -14 -17 -33 -15 -70 2 -28 0 -54 -4 -57 -4 -4 -7 17
-8 47 l-1 54 -14 -34 c-13 -28 -13 -43 -3 -84 l12 -50 18 24 19 24 -12 -32
c-7 -18 -16 -33 -19 -33 -4 0 -14 19 -22 43 l-15 42 -1 -43 c-1 -44 16 -89 42
-110 12 -10 15 -7 21 20 3 18 10 52 15 76 4 23 5 42 0 42 -4 0 -1 15 8 33 9
17 22 44 30 59 20 41 16 44 -17 13 -31 -30 -37 -24 -20 21 13 34 8 39 -14 15z
m24 -75 c0 -2 -8 -10 -17 -17 -16 -13 -17 -12 -4 4 13 16 21 21 21 13z"/>
<path d="M1581 1106 c-13 -43 -16 -47 -25 -32 -6 10 -19 28 -29 40 -17 21 -17
21 -11 -9 3 -16 8 -38 11 -49 3 -12 1 -16 -6 -12 -7 5 -11 -2 -11 -16 0 -13
-14 -43 -30 -67 -17 -24 -30 -50 -30 -58 0 -8 -4 -12 -9 -9 -4 3 -19 -6 -32
-20 -40 -43 -75 -55 -167 -58 -48 -1 -96 -6 -107 -10 -14 -6 -16 -5 -6 2 11 8
9 12 -10 22 -66 35 -158 144 -159 188 0 13 -4 20 -10 17 -6 -3 -10 -24 -10
-47 l0 -40 -35 42 c-30 36 -35 39 -35 20 0 -12 9 -35 20 -50 25 -35 87 -73 93
-57 2 6 6 1 9 -11 6 -22 6 -22 -25 -5 -18 10 -42 26 -54 37 -31 27 -29 5 3
-33 15 -18 45 -37 72 -45 26 -8 39 -15 30 -15 -9 -1 -29 4 -45 9 l-28 10 30
-25 c17 -15 43 -38 59 -52 34 -30 76 -27 129 7 l32 22 -31 -29 c-44 -39 -65
-86 -54 -121 19 -64 52 -122 68 -122 40 1 45 14 27 75 -14 50 -19 57 -39 53
-18 -4 -22 0 -24 22 -1 15 7 39 19 54 17 22 28 26 73 26 69 0 102 -31 97 -91
-1 -11 -8 -15 -24 -12 -21 4 -25 -1 -36 -40 -16 -57 -12 -81 17 -85 18 -3 26
5 43 45 37 85 39 99 19 142 -11 21 -34 48 -52 60 -44 28 -34 26 25 -3 48 -25
76 -24 124 2 14 8 7 10 -31 10 -26 0 -50 3 -53 6 -4 3 19 6 49 6 41 0 62 5 82
21 14 11 24 24 21 29 -3 5 3 15 13 22 21 15 52 58 52 72 0 5 -12 -2 -27 -16
-26 -24 -65 -48 -77 -48 -3 0 -3 6 0 14 3 8 11 13 18 10 20 -8 96 67 106 104
l9 33 -39 -43 -39 -43 1 40 c0 37 1 38 7 10 l7 -30 27 47 c22 36 27 57 25 90
l-3 43 -14 -49z m-604 -178 c-3 -7 -5 -2 -5 12 0 14 2 19 5 13 2 -7 2 -19 0
-25z m520 0 c-3 -7 -5 -2 -5 12 0 14 2 19 5 13 2 -7 2 -19 0 -25z m-457 -58
c6 -11 8 -20 6 -20 -3 0 -10 9 -16 20 -6 11 -8 20 -6 20 3 0 10 -9 16 -20z
m391 -13 c-10 -9 -11 -8 -5 6 3 10 9 15 12 12 3 -3 0 -11 -7 -18z m-366 -27
c3 -5 1 -10 -4 -10 -6 0 -11 5 -11 10 0 6 2 10 4 10 3 0 8 -4 11 -10z m398 3
c-7 -2 -19 -2 -25 0 -7 3 -2 5 12 5 14 0 19 -2 13 -5z m-368 -43 c-11 -5 -29
-9 -40 -9 l-20 0 20 9 c11 5 29 9 40 9 l20 0 -20 -9z"/>
<path d="M725 420 c0 -62 2 -70 19 -70 15 0 16 3 7 14 -7 8 -11 30 -9 48 l3
33 19 -34 19 -35 19 35 19 34 -3 -47 c-3 -37 0 -48 12 -48 12 0 15 14 15 70 0
80 -15 92 -42 35 -9 -19 -20 -35 -23 -35 -3 0 -14 16 -23 35 -9 19 -20 35 -24
35 -5 0 -8 -31 -8 -70z"/>
<path d="M1252 481 c-9 -5 -12 -26 -10 -67 l3 -59 35 0 35 0 3 59 c3 60 -5 76
-38 76 -8 0 -21 -4 -28 -9z m48 -66 c0 -48 -2 -55 -20 -55 -18 0 -20 7 -20 55
0 48 2 55 20 55 18 0 20 -7 20 -55z"/>
<path d="M1357 483 c-4 -3 -7 -14 -7 -24 0 -9 -6 -20 -12 -22 -10 -4 -10 -6 0
-6 7 -1 12 -15 12 -35 0 -19 -6 -37 -12 -39 -7 -3 1 -5 17 -5 17 0 24 2 18 5
-7 2 -13 20 -13 38 0 18 6 36 13 38 10 4 10 6 0 6 -15 1 -18 31 -3 31 6 0 10
5 10 10 0 11 -13 13 -23 3z"/>
<path d="M1417 483 c-4 -3 -7 -15 -7 -25 0 -10 -6 -18 -12 -18 -8 0 -9 -3 -3
-8 15 -11 18 -51 5 -68 -10 -12 -8 -14 16 -13 16 0 23 3 17 6 -7 2 -13 20 -13
38 0 18 6 36 13 38 10 4 10 6 0 6 -15 1 -18 31 -3 31 6 0 10 5 10 10 0 11 -13
13 -23 3z"/>
<path d="M1725 420 c0 -55 3 -70 15 -70 12 0 14 13 12 70 -5 96 -27 96 -27 0z"/>
<path d="M1060 459 c0 -5 5 -7 10 -4 6 3 10 8 10 11 0 2 -4 4 -10 4 -5 0 -10
-5 -10 -11z"/>
<path d="M1465 460 c3 -5 8 -10 11 -10 2 0 4 5 4 10 0 6 -5 10 -11 10 -5 0 -7
-4 -4 -10z"/>
<path d="M878 396 c4 -43 4 -43 44 -43 28 0 36 3 29 10 -6 6 -11 26 -11 44 0
18 -4 33 -9 33 -4 0 -6 -12 -3 -26 3 -16 -1 -30 -9 -35 -24 -15 -29 -10 -29
26 0 19 -3 35 -8 35 -4 0 -6 -20 -4 -44z"/>
<path d="M970 424 c0 -9 10 -24 23 -34 12 -10 19 -22 15 -26 -4 -4 -14 -1 -23
6 -12 10 -15 10 -15 -4 0 -11 9 -16 30 -16 38 0 41 31 5 50 -19 10 -22 16 -14
24 8 8 13 7 16 -1 6 -18 23 -16 23 2 0 10 -10 15 -30 15 -21 0 -30 -5 -30 -16z"/>
<path d="M1055 395 c0 -38 3 -45 20 -45 15 0 16 3 7 12 -7 7 -12 27 -12 45 0
18 -3 33 -7 33 -5 0 -8 -20 -8 -45z"/>
<path d="M1100 395 c0 -43 1 -45 30 -45 17 0 30 4 30 9 0 5 -9 7 -20 4 -17 -5
-20 0 -20 32 0 32 3 37 20 32 11 -3 20 -1 20 4 0 5 -13 9 -30 9 -29 0 -30 -2
-30 -45z"/>
<path d="M1455 395 c0 -33 4 -45 15 -45 12 0 14 10 12 45 -2 25 -9 45 -16 45
-6 0 -11 -18 -11 -45z"/>
<path d="M1510 395 c0 -43 1 -45 30 -45 17 0 30 5 30 10 0 6 -11 8 -25 4 -23
-6 -25 -4 -25 31 0 35 2 37 25 31 14 -4 25 -2 25 4 0 5 -13 10 -30 10 -29 0
-30 -2 -30 -45z"/>
<path d="M1585 395 c0 -33 4 -45 15 -45 12 0 14 10 12 45 -2 25 -9 45 -16 45
-6 0 -11 -18 -11 -45z"/>
<path d="M1640 431 c0 -5 9 -7 20 -4 28 7 25 -11 -5 -31 -38 -25 -32 -46 13
-46 l37 0 -3 45 c-4 42 -6 45 -33 45 -16 0 -29 -4 -29 -9z m40 -56 c0 -8 -7
-15 -15 -15 -16 0 -20 12 -8 23 11 12 23 8 23 -8z"/>
</g>
</svg>
